<svg width="37" height="42" viewBox="0 0 37 42" fill="none" xmlns="http://www.w3.org/2000/svg">
<g id="Group">
<path id="Vector" d="M36.125 18.5V32.2083C36.125 33.2471 35.7124 34.2433 34.9778 34.9778C34.2433 35.7124 33.2471 36.125 32.2083 36.125H4.79167C3.7529 36.125 2.75668 35.7124 2.02216 34.9778C1.28765 34.2433 0.875 33.2471 0.875 32.2083V18.5H36.125ZM26.3333 0.875C26.8527 0.875 27.3508 1.08132 27.7181 1.44858C28.0853 1.81584 28.2917 2.31395 28.2917 2.83333V4.79167H32.2083C33.2471 4.79167 34.2433 5.20431 34.9778 5.93883C35.7124 6.67335 36.125 7.66957 36.125 8.70833V14.5833H0.875V8.70833C0.875 7.66957 1.28765 6.67335 2.02216 5.93883C2.75668 5.20431 3.7529 4.79167 4.79167 4.79167H8.70833V2.83333C8.70833 2.31395 8.91466 1.81584 9.28192 1.44858C9.64918 1.08132 10.1473 0.875 10.6667 0.875C11.186 0.875 11.6842 1.08132 12.0514 1.44858C12.4187 1.81584 12.625 2.31395 12.625 2.83333V4.79167H24.375V2.83333C24.375 2.31395 24.5813 1.81584 24.9486 1.44858C25.3158 1.08132 25.814 0.875 26.3333 0.875Z" fill="#252525"/>
</g>
</svg>
