<svg width="53" height="53" viewBox="0 0 53 53" fill="none" xmlns="http://www.w3.org/2000/svg">
<g id="Group" filter="url(#filter0_d_344_459)">
<path id="Vector" d="M24.5 2.89584C25.2302 2.89587 25.9343 3.16789 26.4748 3.65884C27.0154 4.14979 27.3537 4.82448 27.4238 5.55134L27.4375 5.83334V37.1667C27.4371 37.9211 27.1465 38.6464 26.626 39.1923C26.1054 39.7383 25.3947 40.0631 24.6412 40.0993C23.8877 40.1356 23.1491 39.8805 22.5785 39.3871C22.0079 38.8936 21.649 38.1995 21.5762 37.4487L21.5625 37.1667V5.83334C21.5625 5.05426 21.872 4.3071 22.4229 3.75621C22.9738 3.20532 23.7209 2.89584 24.5 2.89584ZM16.6667 8.77084C17.4457 8.77084 18.1929 9.08032 18.7438 9.63121C19.2947 10.1821 19.6042 10.9293 19.6042 11.7083V31.2917C19.6042 32.0707 19.2947 32.8179 18.7438 33.3688C18.1929 33.9197 17.4457 34.2292 16.6667 34.2292C15.8876 34.2292 15.1404 33.9197 14.5895 33.3688C14.0387 32.8179 13.7292 32.0707 13.7292 31.2917V11.7083C13.7292 10.9293 14.0387 10.1821 14.5895 9.63121C15.1404 9.08032 15.8876 8.77084 16.6667 8.77084ZM32.3333 8.77084C33.1124 8.77084 33.8596 9.08032 34.4105 9.63121C34.9613 10.1821 35.2708 10.9293 35.2708 11.7083V31.2917C35.2708 32.0707 34.9613 32.8179 34.4105 33.3688C33.8596 33.9197 33.1124 34.2292 32.3333 34.2292C31.5543 34.2292 30.8071 33.9197 30.2562 33.3688C29.7053 32.8179 29.3958 32.0707 29.3958 31.2917V11.7083C29.3958 10.9293 29.7053 10.1821 30.2562 9.63121C30.8071 9.08032 31.5543 8.77084 32.3333 8.77084ZM8.83334 14.6458C9.61241 14.6458 10.3596 14.9553 10.9105 15.5062C11.4614 16.0571 11.7708 16.8043 11.7708 17.5833V25.4167C11.7708 26.1957 11.4614 26.9429 10.9105 27.4938C10.3596 28.0447 9.61241 28.3542 8.83334 28.3542C8.05426 28.3542 7.3071 28.0447 6.75621 27.4938C6.20532 26.9429 5.89584 26.1957 5.89584 25.4167V17.5833C5.89584 16.8043 6.20532 16.0571 6.75621 15.5062C7.3071 14.9553 8.05426 14.6458 8.83334 14.6458ZM40.1667 14.6458C40.8969 14.6459 41.6009 14.9179 42.1415 15.4088C42.682 15.8998 43.0204 16.5745 43.0905 17.3013L43.1042 17.5833V25.4167C43.1038 26.1711 42.8132 26.8964 42.2926 27.4423C41.772 27.9883 41.0613 28.3131 40.3078 28.3493C39.5543 28.3856 38.8157 28.1305 38.2451 27.6371C37.6746 27.1436 37.3157 26.4495 37.2429 25.6987L37.2292 25.4167V17.5833C37.2292 16.8043 37.5387 16.0571 38.0895 15.5062C38.6404 14.9553 39.3876 14.6458 40.1667 14.6458Z" fill="#252525"/>
</g>
<defs>
<filter id="filter0_d_344_459" x="0.395836" y="0.395836" width="52.2083" height="52.2069" filterUnits="userSpaceOnUse" color-interpolation-filters="sRGB">
<feFlood flood-opacity="0" result="BackgroundImageFix"/>
<feColorMatrix in="SourceAlpha" type="matrix" values="0 0 0 0 0 0 0 0 0 0 0 0 0 0 0 0 0 0 127 0" result="hardAlpha"/>
<feOffset dx="2" dy="5"/>
<feGaussianBlur stdDeviation="3.75"/>
<feComposite in2="hardAlpha" operator="out"/>
<feColorMatrix type="matrix" values="0 0 0 0 0 0 0 0 0 0 0 0 0 0 0 0 0 0 0.25 0"/>
<feBlend mode="normal" in2="BackgroundImageFix" result="effect1_dropShadow_344_459"/>
<feBlend mode="normal" in="SourceGraphic" in2="effect1_dropShadow_344_459" result="shape"/>
</filter>
</defs>
</svg>
