<svg width="47" height="47" viewBox="0 0 47 47" fill="none" xmlns="http://www.w3.org/2000/svg">
<g id="ic:round-tag">
<path id="Vector" d="M39.1667 17.625C39.1667 16.5479 38.2854 15.6667 37.2083 15.6667H31.3333V9.79166C31.3333 8.71458 30.4521 7.83333 29.375 7.83333C28.2979 7.83333 27.4167 8.71458 27.4167 9.79166V15.6667H19.5833V9.79166C19.5833 8.71458 18.7021 7.83333 17.625 7.83333C16.5479 7.83333 15.6667 8.71458 15.6667 9.79166V15.6667H9.79167C8.71458 15.6667 7.83333 16.5479 7.83333 17.625C7.83333 18.7021 8.71458 19.5833 9.79167 19.5833H15.6667V27.4167H9.79167C8.71458 27.4167 7.83333 28.2979 7.83333 29.375C7.83333 30.4521 8.71458 31.3333 9.79167 31.3333H15.6667V37.2083C15.6667 38.2854 16.5479 39.1667 17.625 39.1667C18.7021 39.1667 19.5833 38.2854 19.5833 37.2083V31.3333H27.4167V37.2083C27.4167 38.2854 28.2979 39.1667 29.375 39.1667C30.4521 39.1667 31.3333 38.2854 31.3333 37.2083V31.3333H37.2083C38.2854 31.3333 39.1667 30.4521 39.1667 29.375C39.1667 28.2979 38.2854 27.4167 37.2083 27.4167H31.3333V19.5833H37.2083C38.2854 19.5833 39.1667 18.7021 39.1667 17.625ZM27.4167 27.4167H19.5833V19.5833H27.4167V27.4167Z" fill="#252525"/>
</g>
</svg>
