<svg width="47" height="47" viewBox="0 0 47 47" fill="none" xmlns="http://www.w3.org/2000/svg">
<g id="ic:round-settings">
<path id="Vector" d="M38.1875 23.5C38.1875 23.0496 38.1679 22.6188 38.1287 22.1683L41.7712 19.4071C42.5546 18.8196 42.77 17.7229 42.2804 16.8613L38.6183 10.5358C38.3835 10.121 38.0037 9.80761 37.5519 9.6558C37.1001 9.50398 36.6081 9.52447 36.1704 9.71333L31.96 11.4954C31.2354 10.9863 30.4717 10.5358 29.6687 10.1638L29.1008 5.64C28.9833 4.66083 28.1412 3.91667 27.1621 3.91667H19.8575C18.8588 3.91667 18.0167 4.66083 17.8992 5.64L17.3313 10.1638C16.5283 10.5358 15.7646 10.9863 15.04 11.4954L10.8296 9.71333C9.92875 9.32167 8.87125 9.67417 8.38167 10.5358L4.71958 16.8808C4.23 17.7425 4.44542 18.8196 5.22875 19.4267L8.87125 22.1879C8.78959 23.0673 8.78959 23.9523 8.87125 24.8317L5.22875 27.5929C4.44542 28.1804 4.23 29.2771 4.71958 30.1388L8.38167 36.4642C8.87125 37.3258 9.92875 37.6783 10.8296 37.2867L15.04 35.5046C15.7646 36.0138 16.5283 36.4642 17.3313 36.8363L17.8992 41.36C18.0167 42.3392 18.8588 43.0833 19.8379 43.0833H27.1425C28.1217 43.0833 28.9638 42.3392 29.0813 41.36L29.6492 36.8363C30.4521 36.4642 31.2158 36.0138 31.9404 35.5046L36.1508 37.2867C37.0517 37.6783 38.1092 37.3258 38.5987 36.4642L42.2608 30.1388C42.7504 29.2771 42.535 28.2 41.7517 27.5929L38.1092 24.8317C38.1679 24.3813 38.1875 23.9504 38.1875 23.5ZM23.5783 30.3542C19.7987 30.3542 16.7242 27.2796 16.7242 23.5C16.7242 19.7204 19.7987 16.6458 23.5783 16.6458C27.3579 16.6458 30.4325 19.7204 30.4325 23.5C30.4325 27.2796 27.3579 30.3542 23.5783 30.3542Z" fill="#252525"/>
</g>
</svg>
